
<svg width="430px" height="120px" viewBox="0 0 430 120" version="1.1" xmlns="http://www.w3.org/2000/svg" xmlns:xlink="http://www.w3.org/1999/xlink">
    <g stroke="none" stroke-width="1" fill="none" fill-rule="evenodd">
        <rect fill="#FFFFFF" x="0" y="0" width="430" height="120"></rect>
        <path d="M146.1149,16.3115 L146.1149,13.6185 C146.1149,12.8995 145.5299,12.2835 144.7759,12.2835 L124.5339,12.2835 L124.5339,11.4265 C124.5339,10.6985 123.9399,10.0895 123.1969,10.0895 L120.4929,10.0895 C119.6929,10.0895 119.1569,10.7635 119.1569,11.4285 L119.1569,16.3115 C119.1569,17.0435 119.7839,17.6245 120.4929,17.6245 L129.3689,17.6245 L129.3689,20.5125 L120.4929,20.5125 C119.7009,20.5125 119.1569,21.1805 119.1569,21.8345 L119.1569,24.5095 C119.1569,25.2365 119.7609,25.8535 120.4939,25.8535 L128.8449,25.8535 C126.9259,28.0955 124.0719,29.2475 120.4919,30.0355 C119.4719,30.2605 119.1569,30.9385 119.1569,31.3535 L119.1569,34.0465 C119.1569,34.9545 120.0179,35.4405 120.5179,35.3755 C127.0859,34.5115 130.0519,31.5095 132.1399,28.6015 C133.9589,32.8045 141.8639,35.1205 144.7749,35.3765 C145.5449,35.4445 146.1149,34.6855 146.1149,34.0515 C146.1149,33.5255 146.1149,32.3215 146.1149,31.4365 C146.1149,30.5915 145.3589,30.0835 144.7739,29.9845 C141.5569,29.4395 138.4599,28.1375 136.4159,25.8535 L144.7759,25.8535 C145.4159,25.8535 146.1149,25.3405 146.1149,24.5055 L146.1149,21.8345 C146.1149,21.1995 145.5839,20.5125 144.7759,20.5125 L134.7029,20.5125 L134.7029,17.6245 L144.7759,17.6245 C145.6149,17.6245 146.1149,16.9085 146.1149,16.3115" fill="#004098"></path>
        <path d="M161.7495,45.46 L127.2145,45.46 C126.2565,45.46 125.8265,44.602 125.8265,44.076 L125.8265,43.672 C125.8265,42.894 126.4175,42.23 127.2105,42.23 L161.6985,42.23 C162.2245,42.23 163.1495,42.645 163.1495,43.61 L163.1495,44.085 C163.1495,44.248 162.9805,45.46 161.7495,45.46 L161.7495,45.46 Z M163.1475,52.725 C163.1475,53.456 162.5705,54.088 161.7775,54.088 L127.2155,54.088 C126.1445,54.088 125.8265,53.067 125.8265,52.744 L125.8265,52.178 C125.8265,51.254 126.6405,50.801 127.2115,50.801 L161.7505,50.801 C162.7525,50.801 163.1475,51.731 163.1475,52.184 L163.1475,52.725 Z M163.9925,36.852 L124.9075,36.852 C122.6865,36.852 120.4795,38.625 120.4795,41.292 L120.4795,54.963 C120.4795,57.628 122.7205,59.4 124.9075,59.4 L164.0285,59.4 C166.6545,59.4 168.4915,57.231 168.4915,54.963 L168.4915,41.292 C168.4915,39.175 166.8105,36.852 163.9925,36.852 L163.9925,36.852 Z" fill="#004098"></path>
        <path d="M164.4529,28.6392 C164.4529,29.6472 163.6969,30.0592 163.1209,30.0592 L155.6129,30.0592 C154.7159,30.0592 154.2569,29.3082 154.2569,28.6472 L154.2569,16.7782 C154.2569,16.1882 154.7569,15.4312 155.6129,15.4312 L163.1209,15.4312 C163.6139,15.4312 164.4529,15.8302 164.4529,16.7782 L164.4529,28.6392 Z M165.3519,10.0902 L153.4189,10.0902 C150.9329,10.0902 148.9179,12.1072 148.920897,14.5932 L148.9399,30.9322 C148.9399,33.1662 150.7599,35.3692 153.3769,35.3692 L165.3819,35.3692 C167.5039,35.3692 169.8189,33.6252 169.8189,30.9482 L169.7939,14.5212 C169.7939,12.3382 168.0079,10.0902 165.3519,10.0902 L165.3519,10.0902 Z" fill="#004098"></path>
        <path d="M192.1459,22.753 L186.3479,22.753 C185.6339,22.753 185.0219,22.195 185.0219,21.42 L185.0219,16.802 C185.0219,16.086 185.5899,15.465 186.3479,15.465 L192.1469,15.465 C192.9579,15.465 193.4859,16.145 193.4859,16.798 L193.4859,21.42 C193.4859,22.196 192.8639,22.753 192.1459,22.753 M192.1459,35.414 L186.3579,35.414 C185.7039,35.414 185.0219,34.9 185.0219,34.08 L185.0219,29.44 C185.0219,28.606 185.7349,28.094 186.3489,28.094 L192.1459,28.094 C192.8749,28.094 193.4859,28.709 193.4859,29.44 L193.4859,34.08 C193.4859,34.62 193.0559,35.414 192.1459,35.414 M192.1459,48.055 L186.3569,48.055 C185.6519,48.055 185.0219,47.471 185.0219,46.694 L185.0219,42.077 C185.0219,41.25 185.7399,40.755 186.3479,40.755 L192.1459,40.755 C192.9889,40.755 193.4859,41.494 193.4859,42.077 L193.4859,46.694 C193.4859,47.378 192.9529,48.055 192.1459,48.055 M201.0789,14.125 L201.0789,11.435 C201.0789,10.793 200.5689,10.09 199.7429,10.09 L178.8239,10.09 C178.1859,10.09 177.4869,10.59 177.4869,11.425 L177.4869,14.128 C177.4869,14.96 178.2069,15.465 178.8079,15.465 L179.6809,15.465 L179.6809,48.055 L178.8239,48.055 C178.2429,48.055 177.4869,48.514 177.4869,49.402 L177.4869,52.046 C177.4869,52.912 178.2559,53.391 178.8239,53.391 L193.4859,53.391 L193.4859,58.064 C193.4859,58.839 194.1459,59.4 194.8249,59.4 L197.4879,59.4 C198.2549,59.4 198.8269,58.767 198.8269,58.064 L198.8269,53.391 L199.7449,53.391 C200.4339,53.391 201.0789,52.791 201.0789,52.048 L201.0789,49.394 C201.0789,48.665 200.4759,48.055 199.7429,48.055 L198.8269,48.055 L198.8269,15.465 L199.7429,15.465 C200.3979,15.465 201.0789,14.934 201.0789,14.125" fill="#004098"></path>
        <path d="M201.5989,35.9211 L201.5989,33.2651 C201.5989,32.5051 202.2289,31.9321 202.9279,31.9321 L212.8389,31.9321 L212.8389,21.7541 L202.9359,21.7541 C202.1879,21.7541 201.5989,21.1131 201.5989,20.4111 L201.5989,17.7631 C201.5989,17.0251 202.2039,16.4121 202.9379,16.4121 L205.4969,16.4121 L205.4969,11.4211 C205.4969,10.6271 206.1809,10.0901 206.8239,10.0901 L209.5019,10.0901 C210.2389,10.0901 210.8379,10.6901 210.8379,11.4211 L210.8379,16.4121 L220.2809,16.4121 L220.2809,11.4271 C220.2809,10.6121 220.9549,10.0901 221.6129,10.0901 L224.2789,10.0901 C225.1239,10.0901 225.6209,10.8261 225.6209,11.4211 L225.6209,16.4121 L228.0879,16.4121 C228.8439,16.4121 229.4249,17.0441 229.4249,17.7581 L229.4249,20.4151 C229.4249,21.1461 228.8289,21.7541 228.0869,21.7541 L218.1789,21.7541 L218.1789,31.9321 L228.0869,31.9321 C228.9299,31.9321 229.4249,32.6531 229.4249,33.2651 L229.4249,35.9211 C229.4249,36.5671 228.8949,37.2571 228.0879,37.2571 L218.3719,37.2571 C221.9339,47.2851 225.4959,52.0561 228.7449,54.0021 C228.9659,54.1341 229.4019,54.5121 229.4019,55.1561 L229.4019,58.0641 C229.4019,59.0681 228.3659,59.6281 227.5809,59.3121 C221.0689,56.6861 217.0209,48.3331 215.5079,44.2021 C213.8619,48.4911 209.8229,56.7801 203.4179,59.3091 C202.6379,59.6171 201.5989,59.1071 201.5989,58.0641 L201.5989,55.1431 C201.5989,54.5121 202.0099,54.1511 202.2389,54.0111 C205.8929,51.7821 209.2419,46.7621 212.6659,37.2571 L202.9269,37.2571 C202.1729,37.2571 201.5989,36.6101 201.5989,35.9211" fill="#004098"></path>
        <path d="M26.4665,10.0002 L23.5925,10.0002 C22.8625,10.0002 22.2695,10.5922 22.2695,11.3232 L22.2695,22.7002 L10.3375,22.7002 C9.6065,22.7002 9.0145,23.2922 9.0145,24.0232 L9.0145,26.9512 C9.0145,27.6812 9.6065,28.2742 10.3375,28.2742 L22.2695,28.2742 L22.2695,43.1512 C22.2695,43.1512 12.1795,46.9402 9.8225,47.9202 C9.3295,48.1262 9.0145,48.6052 9.0145,49.1392 L9.0145,52.5112 C9.0145,53.4652 9.9935,54.1052 10.8675,53.7232 L22.2695,49.3132 L22.2695,57.8342 C22.2695,58.5642 22.8625,59.1572 23.5925,59.1572 L26.4665,59.1572 C27.1975,59.1572 27.7895,58.5642 27.7895,57.8342 L27.7895,11.3232 C27.7895,10.5922 27.1975,10.0002 26.4665,10.0002" fill="#004098"></path>
        <path d="M54.7442,43.583 C54.0162,43.582 53.4282,44.17 53.4352,44.898 C53.4512,46.53 53.4792,49.119 53.4272,49.933 C53.3842,51.159 53.1262,52.027 52.6332,52.591 C52.1292,53.166 51.2642,53.507 49.9702,53.635 C48.9972,53.711 48.2702,53.747 47.7842,53.747 C47.3372,53.747 46.5902,53.711 45.5282,53.635 C44.5942,53.542 43.9222,53.193 43.5362,52.598 C43.1862,52.065 43.0162,51.275 43.0162,50.185 L43.0162,33.915 L55.5422,26.089 C55.9292,25.847 56.1642,25.423 56.1642,24.967 L56.1642,21.578 C56.1642,20.539 55.0212,19.906 54.1402,20.456 L43.0162,27.407 L43.0162,11.323 C43.0162,10.593 42.4242,10 41.6932,10 L38.8212,10 C38.0902,10 37.4982,10.593 37.4982,11.323 L37.4982,50.895 C37.4982,53.03 37.7222,54.68 38.1622,55.799 C38.5802,56.858 39.2372,57.604 40.1742,58.079 C41.1662,58.583 42.6372,58.91 44.5612,59.05 C45.3342,59.121 46.5302,59.157 48.1122,59.157 C49.6952,59.157 50.8902,59.121 51.6752,59.048 C53.5202,58.91 54.9722,58.599 55.9892,58.125 C56.9482,57.678 57.6312,56.994 58.0782,56.037 C58.5512,55.022 58.8432,53.574 58.9482,51.724 C59.1242,49.324 59.1022,46.489 59.0682,44.879 C59.0532,44.161 58.4652,43.588 57.7472,43.587 L54.7442,43.583 Z" fill="#004098"></path>
        <path d="M64.1463,48.1653 L64.1463,45.5033 C64.1463,44.7583 64.7503,44.1533 65.4963,44.1533 L94.6073,44.1533 L94.6073,11.3493 C94.6073,10.6043 95.2113,10.0003 95.9563,10.0003 L98.5983,10.0003 C99.3443,10.0003 99.9483,10.6043 99.9483,11.3493 L99.9483,44.1533 L113.0053,44.1533 C113.7513,44.1533 114.3553,44.7583 114.3553,45.5033 L114.3553,48.1653 C114.3553,48.9103 113.7513,49.5153 113.0053,49.5153 L99.9483,49.5153 L99.9483,57.9703 C99.9483,58.7163 99.3443,59.3203 98.5983,59.3203 L95.9563,59.3203 C95.2113,59.3203 94.6073,58.7163 94.6073,57.9703 L94.6073,49.5153 L65.4963,49.5153 C64.7503,49.5153 64.1463,48.9103 64.1463,48.1653" fill="#004098"></path>
        <path d="M85.4136,24.1256 L74.4386,17.0056 C73.8506,16.6236 73.6626,15.8496 74.0096,15.2406 L75.2996,12.9766 C75.6706,12.3266 76.5056,12.1126 77.1426,12.5056 L88.2546,19.3466 C88.8586,19.7196 89.0616,20.5026 88.7146,21.1216 L87.2876,23.6636 C86.9136,24.3296 86.0546,24.5416 85.4136,24.1256 M80.4006,36.3946 L69.3306,29.4596 C68.7286,29.0826 68.5326,28.2966 68.8866,27.6796 L70.2106,25.3726 C70.5796,24.7296 71.4046,24.5156 72.0396,24.8966 L83.1656,31.5786 C83.7716,31.9416 83.9846,32.7176 83.6486,33.3406 L82.2686,35.9016 C81.9056,36.5746 81.0486,36.8006 80.4006,36.3946" fill="#004098"></path>
        <path d="M134.444,68.102 C133.801,68.102 133.144,68.364 132.646,68.894 L127.806,74.061 C127.377,74.505 126.432,74.922 125.821,74.922 L9,74.922 L9,77 L125.821,77 C126.94,77 128.388,76.383 129.181,75.53 L134.029,70.365 C134.146,70.25 134.292,70.203 134.444,70.203 L134.444,68.102 Z" fill="#BF2126"></path>
        <path d="M134.444,68.102 C135.092,68.102 135.754,68.364 136.243,68.894 L141.091,74.061 C141.508,74.505 142.476,74.922 143.075,74.922 L416.487,74.922 L416.487,77 L143.075,77 C141.943,77 140.51,76.383 139.711,75.53 L134.862,70.365 C134.758,70.25 134.601,70.203 134.444,70.203 L134.444,68.102 Z" fill="#004098"></path>
        <path d="M16.6387,103.065 C19.3007,103.065 20.8277,102.116 20.8277,100.033 C20.8277,98.112 19.3467,97.278 16.6387,97.278 L13.9307,97.278 L13.9307,103.065 L16.6387,103.065 Z M16.2217,95.241 C18.8147,95.241 19.9027,94.269 19.9027,92.671 C19.9027,90.889 18.6997,90.218 16.2907,90.218 L13.9307,90.218 L13.9307,95.241 L16.2217,95.241 Z M11.2447,88.134 L16.5237,88.134 C20.0187,88.134 22.5407,89.246 22.5407,92.325 C22.5407,93.945 21.6387,95.496 20.1117,96.005 L20.1117,96.121 C22.0557,96.538 23.4667,97.857 23.4667,100.171 C23.4667,103.551 20.7127,105.171 16.9397,105.171 L11.2447,105.171 L11.2447,88.134 Z" fill="#4D4948"></path>
        <path d="M34.2491,97.6714 C34.2491,95.4724 33.2541,94.1994 31.4021,94.1994 C29.8051,94.1994 28.3931,95.4264 28.1391,97.6714 L34.2491,97.6714 Z M25.5461,98.8284 C25.5461,94.6854 28.3701,92.1154 31.3551,92.1154 C34.7351,92.1154 36.5411,94.5464 36.5411,98.1574 C36.5411,98.6664 36.4941,99.1994 36.4251,99.5004 L28.1611,99.5004 C28.3701,101.9314 29.8971,103.3894 32.0971,103.3894 C33.2301,103.3894 34.2031,103.0414 35.1291,102.4404 L36.0551,104.1294 C34.8741,104.9164 33.4161,105.4724 31.7491,105.4724 C28.3001,105.4724 25.5461,103.0194 25.5461,98.8284 L25.5461,98.8284 Z" fill="#4D4948"></path>
        <path d="M39.5225,105.1707 L42.1615,105.1707 L42.1615,92.4397 L39.5225,92.4397 L39.5225,105.1707 Z M39.1525,88.4817 C39.1525,87.5327 39.8705,86.9077 40.8415,86.9077 C41.8145,86.9077 42.5545,87.5327 42.5545,88.4817 C42.5545,89.4077 41.8145,90.0567 40.8415,90.0567 C39.8705,90.0567 39.1525,89.4077 39.1525,88.4817 L39.1525,88.4817 Z" fill="#4D4948"></path>
        <path d="M54.0811,101.7222 L54.0811,95.4952 C53.1321,94.6392 52.2281,94.3382 51.2801,94.3382 C49.4971,94.3382 48.0621,96.0282 48.0621,98.7832 C48.0621,101.6762 49.1961,103.2732 51.1871,103.2732 C52.2521,103.2732 53.1551,102.7872 54.0811,101.7222 M45.3081,98.8282 C45.3081,94.6852 47.9241,92.1162 50.7701,92.1162 C52.2281,92.1162 53.1551,92.6712 54.1961,93.5512 L54.0811,91.4452 L54.0811,86.7232 L56.7421,86.7232 L56.7421,105.1712 L54.5661,105.1712 L54.3351,103.7362 L54.2661,103.7362 C53.3161,104.7082 51.9971,105.4722 50.5621,105.4722 C47.3681,105.4722 45.3081,103.0412 45.3081,98.8282" fill="#4D4948"></path>
        <path d="M69.0987,98.8287 C69.0987,96.1207 67.8487,94.3147 65.8347,94.3147 C63.8437,94.3147 62.5937,96.1207 62.5937,98.8287 C62.5937,101.5147 63.8437,103.2967 65.8347,103.2967 C67.8487,103.2967 69.0987,101.5147 69.0987,98.8287 M59.8397,98.8287 C59.8397,94.5697 62.6867,92.1157 65.8347,92.1157 C68.9827,92.1157 71.8297,94.5697 71.8297,98.8287 C71.8297,103.0417 68.9827,105.4727 65.8347,105.4727 C62.6867,105.4727 59.8397,103.0417 59.8397,98.8287" fill="#4D4948"></path>
        <path d="M74.7881,100.4498 L74.7881,92.4398 L77.4501,92.4398 L77.4501,100.1258 C77.4501,102.3248 78.0751,103.1808 79.5801,103.1808 C80.7611,103.1808 81.5701,102.6258 82.6361,101.2828 L82.6361,92.4398 L85.2971,92.4398 L85.2971,105.1718 L83.1211,105.1718 L82.9131,103.2508 L82.8441,103.2508 C81.6861,104.5928 80.4361,105.4718 78.6771,105.4718 C75.9691,105.4718 74.7881,103.6898 74.7881,100.4498" fill="#4D4948"></path>
        <polygon fill="#4D4948" points="94.7355 105.1717 97.4215 105.1717 97.4215 88.1347 94.7355 88.1347"></polygon>
        <path d="M101.6543,92.44 L103.8303,92.44 L104.0393,94.2 L104.1083,94.2 C105.2893,93.065 106.5853,92.116 108.3213,92.116 C111.0293,92.116 112.2323,93.921 112.2323,97.163 L112.2323,105.171 L109.5713,105.171 L109.5713,97.487 C109.5713,95.288 108.9233,94.408 107.4183,94.408 C106.2373,94.408 105.4273,95.009 104.2933,96.144 L104.2933,105.171 L101.6543,105.171 L101.6543,92.44 Z" fill="#4D4948"></path>
        <path d="M116.5108,101.0045 L116.5108,94.5695 L114.6588,94.5695 L114.6588,92.5795 L116.6258,92.4405 L116.9268,88.9215 L119.1728,88.9215 L119.1728,92.4405 L122.4828,92.4405 L122.4828,94.5695 L119.1728,94.5695 L119.1728,101.0275 C119.1728,102.5565 119.7048,103.3425 121.0248,103.3425 C121.4638,103.3425 122.0198,103.2035 122.3898,103.0415 L122.8758,105.0095 C122.1578,105.2405 121.3018,105.4725 120.3758,105.4725 C117.5058,105.4725 116.5108,103.6905 116.5108,101.0045" fill="#4D4948"></path>
        <path d="M132.6651,97.6714 C132.6651,95.4724 131.6701,94.1994 129.8181,94.1994 C128.2211,94.1994 126.8091,95.4264 126.5551,97.6714 L132.6651,97.6714 Z M123.9621,98.8284 C123.9621,94.6854 126.7861,92.1154 129.7711,92.1154 C133.1511,92.1154 134.9571,94.5464 134.9571,98.1574 C134.9571,98.6664 134.9101,99.1994 134.8411,99.5004 L126.5771,99.5004 C126.7861,101.9314 128.3131,103.3894 130.5131,103.3894 C131.6461,103.3894 132.6191,103.0414 133.5451,102.4404 L134.4711,104.1294 C133.2901,104.9164 131.8321,105.4724 130.1651,105.4724 C126.7161,105.4724 123.9621,103.0194 123.9621,98.8284 L123.9621,98.8284 Z" fill="#4D4948"></path>
        <path d="M137.9385,102.1851 L137.9385,86.7231 L140.5775,86.7231 L140.5775,102.3251 C140.5775,103.0411 140.9015,103.2961 141.2255,103.2961 C141.3415,103.2961 141.4335,103.2961 141.6655,103.2501 L142.0125,105.2641 C141.6885,105.3791 141.2255,105.4721 140.5775,105.4721 C138.6565,105.4721 137.9385,104.2461 137.9385,102.1851" fill="#4D4948"></path>
        <path d="M144.834,102.1851 L144.834,86.7231 L147.473,86.7231 L147.473,102.3251 C147.473,103.0411 147.797,103.2961 148.121,103.2961 C148.237,103.2961 148.329,103.2961 148.561,103.2501 L148.908,105.2641 C148.584,105.3791 148.121,105.4721 147.473,105.4721 C145.552,105.4721 144.834,104.2461 144.834,102.1851" fill="#4D4948"></path>
        <path d="M151.7305,105.1707 L154.3695,105.1707 L154.3695,92.4397 L151.7305,92.4397 L151.7305,105.1707 Z M151.3605,88.4817 C151.3605,87.5327 152.0785,86.9077 153.0495,86.9077 C154.0225,86.9077 154.7625,87.5327 154.7625,88.4817 C154.7625,89.4077 154.0225,90.0567 153.0495,90.0567 C152.0785,90.0567 151.3605,89.4077 151.3605,88.4817 L151.3605,88.4817 Z" fill="#4D4948"></path>
        <path d="M165.2227,96.6998 C165.2227,94.9868 164.1587,93.9908 162.8157,93.9908 C161.4727,93.9908 160.4087,94.9638 160.4087,96.6998 C160.4087,98.3888 161.4957,99.4308 162.8157,99.4308 C164.1347,99.4308 165.2227,98.3888 165.2227,96.6998 M166.8207,106.8608 C166.8207,105.7968 165.9867,105.4718 164.4357,105.4718 L162.5147,105.4718 C161.9127,105.4718 161.3337,105.4028 160.8017,105.2878 C160.0377,105.8428 159.7137,106.4908 159.7137,107.1388 C159.7137,108.3888 161.0097,109.1298 163.1167,109.1298 C165.3387,109.1298 166.8207,108.0418 166.8207,106.8608 M157.4457,107.5328 C157.4457,106.4678 158.1167,105.4718 159.2967,104.7548 L159.2967,104.6388 C158.6497,104.2458 158.1397,103.5738 158.1397,102.5328 C158.1397,101.5378 158.8577,100.6808 159.5517,100.1718 L159.5517,100.0788 C158.6957,99.4078 157.8847,98.2038 157.8847,96.6998 C157.8847,93.8058 160.1767,92.1158 162.8157,92.1158 C163.5337,92.1158 164.1817,92.2558 164.6667,92.4398 L169.1817,92.4398 L169.1817,94.4308 L166.7507,94.4308 C167.2367,94.9398 167.5837,95.7968 167.5837,96.7688 C167.5837,99.5468 165.4777,101.1438 162.8157,101.1438 C162.2377,101.1438 161.5887,101.0048 161.0337,100.7508 C160.6167,101.1208 160.3387,101.4908 160.3387,102.0928 C160.3387,102.8568 160.8477,103.3428 162.4687,103.3428 L164.8067,103.3428 C167.8157,103.3428 169.3897,104.2688 169.3897,106.4448 C169.3897,108.8978 166.7967,110.8888 162.7227,110.8888 C159.6677,110.8888 157.4457,109.7548 157.4457,107.5328" fill="#4D4948"></path>
        <path d="M179.1534,97.6714 C179.1534,95.4724 178.1584,94.1994 176.3064,94.1994 C174.7094,94.1994 173.2974,95.4264 173.0434,97.6714 L179.1534,97.6714 Z M170.4504,98.8284 C170.4504,94.6854 173.2744,92.1154 176.2594,92.1154 C179.6394,92.1154 181.4454,94.5464 181.4454,98.1574 C181.4454,98.6664 181.3984,99.1994 181.3294,99.5004 L173.0654,99.5004 C173.2744,101.9314 174.8014,103.3894 177.0014,103.3894 C178.1344,103.3894 179.1074,103.0414 180.0334,102.4404 L180.9594,104.1294 C179.7784,104.9164 178.3204,105.4724 176.6534,105.4724 C173.2044,105.4724 170.4504,103.0194 170.4504,98.8284 L170.4504,98.8284 Z" fill="#4D4948"></path>
        <path d="M184.4268,92.44 L186.6028,92.44 L186.8118,94.2 L186.8808,94.2 C188.0618,93.065 189.3578,92.116 191.0938,92.116 C193.8018,92.116 195.0058,93.921 195.0058,97.163 L195.0058,105.171 L192.3438,105.171 L192.3438,97.487 C192.3438,95.288 191.6958,94.408 190.1908,94.408 C189.0098,94.408 188.1998,95.009 187.0658,96.144 L187.0658,105.171 L184.4268,105.171 L184.4268,92.44 Z" fill="#4D4948"></path>
        <path d="M199.2842,101.0045 L199.2842,94.5695 L197.4322,94.5695 L197.4322,92.5795 L199.3992,92.4405 L199.7002,88.9215 L201.9462,88.9215 L201.9462,92.4405 L205.2562,92.4405 L205.2562,94.5695 L201.9462,94.5695 L201.9462,101.0275 C201.9462,102.5565 202.4782,103.3425 203.7982,103.3425 C204.2372,103.3425 204.7932,103.2035 205.1632,103.0415 L205.6492,105.0095 C204.9312,105.2405 204.0752,105.4725 203.1492,105.4725 C200.2792,105.4725 199.2842,103.6905 199.2842,101.0045" fill="#4D4948"></path>
        <path d="M212.543,96.6998 C212.543,91.1438 215.923,87.8108 220.228,87.8108 C222.357,87.8108 224.025,88.8298 225.066,89.9638 L223.607,91.6768 C222.728,90.7738 221.664,90.1488 220.275,90.1488 C217.335,90.1488 215.298,92.6018 215.298,96.6068 C215.298,100.6578 217.195,103.1348 220.205,103.1348 C221.755,103.1348 222.959,102.4398 223.978,101.3288 L225.414,103.0188 C224.048,104.5928 222.312,105.4718 220.113,105.4718 C215.83,105.4718 212.543,102.2778 212.543,96.6998" fill="#4D4948"></path>
        <path d="M236.5425,98.8287 C236.5425,96.1207 235.2925,94.3147 233.2785,94.3147 C231.2865,94.3147 230.0365,96.1207 230.0365,98.8287 C230.0365,101.5147 231.2865,103.2967 233.2785,103.2967 C235.2925,103.2967 236.5425,101.5147 236.5425,98.8287 M227.2825,98.8287 C227.2825,94.5697 230.1305,92.1157 233.2785,92.1157 C236.4255,92.1157 239.2725,94.5697 239.2725,98.8287 C239.2725,103.0417 236.4255,105.4727 233.2785,105.4727 C230.1305,105.4727 227.2825,103.0417 227.2825,98.8287" fill="#4D4948"></path>
        <path d="M242.3941,92.44 L244.5701,92.44 L244.7791,94.2 L244.8491,94.2 C246.0291,93.065 247.3261,92.116 249.0621,92.116 C251.7691,92.116 252.9721,93.921 252.9721,97.163 L252.9721,105.171 L250.3121,105.171 L250.3121,97.487 C250.3121,95.288 249.6641,94.408 248.1581,94.408 C246.9781,94.408 246.1671,95.009 245.0331,96.144 L245.0331,105.171 L242.3941,105.171 L242.3941,92.44 Z" fill="#4D4948"></path>
        <path d="M256.8335,92.44 L259.0095,92.44 L259.2185,94.2 L259.2885,94.2 C260.4685,93.065 261.7655,92.116 263.5015,92.116 C266.2085,92.116 267.4115,93.921 267.4115,97.163 L267.4115,105.171 L264.7515,105.171 L264.7515,97.487 C264.7515,95.288 264.1035,94.408 262.5975,94.408 C261.4175,94.408 260.6065,95.009 259.4725,96.144 L259.4725,105.171 L256.8335,105.171 L256.8335,92.44 Z" fill="#4D4948"></path>
        <path d="M279.0738,97.6714 C279.0738,95.4724 278.0798,94.1994 276.2278,94.1994 C274.6308,94.1994 273.2188,95.4264 272.9628,97.6714 L279.0738,97.6714 Z M270.3708,98.8284 C270.3708,94.6854 273.1948,92.1154 276.1808,92.1154 C279.5598,92.1154 281.3668,94.5464 281.3668,98.1574 C281.3668,98.6664 281.3198,99.1994 281.2498,99.5004 L272.9858,99.5004 C273.1948,101.9314 274.7218,103.3894 276.9218,103.3894 C278.0558,103.3894 279.0288,103.0414 279.9548,102.4404 L280.8808,104.1294 C279.6988,104.9164 278.2418,105.4724 276.5738,105.4724 C273.1248,105.4724 270.3708,103.0194 270.3708,98.8284 L270.3708,98.8284 Z" fill="#4D4948"></path>
        <path d="M283.4449,98.8287 C283.4449,94.5697 286.3839,92.1157 289.7419,92.1157 C291.3609,92.1157 292.5429,92.7647 293.4679,93.5747 L292.1479,95.3097 C291.4549,94.6847 290.7359,94.3147 289.8569,94.3147 C287.7279,94.3147 286.1989,96.1207 286.1989,98.8287 C286.1989,101.5147 287.6579,103.2967 289.7869,103.2967 C290.8529,103.2967 291.8019,102.7877 292.5659,102.1397 L293.6539,103.8977 C292.4959,104.9397 290.9919,105.4727 289.5329,105.4727 C286.0839,105.4727 283.4449,103.0417 283.4449,98.8287" fill="#4D4948"></path>
        <path d="M296.4742,101.0045 L296.4742,94.5695 L294.6222,94.5695 L294.6222,92.5795 L296.5892,92.4405 L296.8902,88.9215 L299.1362,88.9215 L299.1362,92.4405 L302.4472,92.4405 L302.4472,94.5695 L299.1362,94.5695 L299.1362,101.0275 C299.1362,102.5565 299.6692,103.3425 300.9882,103.3425 C301.4272,103.3425 301.9842,103.2035 302.3532,103.0415 L302.8392,105.0095 C302.1222,105.2405 301.2652,105.4725 300.3392,105.4725 C297.4702,105.4725 296.4742,103.6905 296.4742,101.0045" fill="#4D4948"></path>
        <path d="M312.6285,97.6714 C312.6285,95.4724 311.6325,94.1994 309.7805,94.1994 C308.1835,94.1994 306.7715,95.4264 306.5175,97.6714 L312.6285,97.6714 Z M303.9255,98.8284 C303.9255,94.6854 306.7495,92.1154 309.7335,92.1154 C313.1145,92.1154 314.9195,94.5464 314.9195,98.1574 C314.9195,98.6664 314.8725,99.1994 314.8045,99.5004 L306.5405,99.5004 C306.7495,101.9314 308.2765,103.3894 310.4765,103.3894 C311.6085,103.3894 312.5815,103.0414 313.5075,102.4404 L314.4335,104.1294 C313.2535,104.9164 311.7945,105.4724 310.1285,105.4724 C306.6795,105.4724 303.9255,103.0194 303.9255,98.8284 L303.9255,98.8284 Z" fill="#4D4948"></path>
        <path d="M325.8179,101.7222 L325.8179,95.4952 C324.8689,94.6392 323.9659,94.3382 323.0169,94.3382 C321.2339,94.3382 319.7999,96.0282 319.7999,98.7832 C319.7999,101.6762 320.9329,103.2732 322.9249,103.2732 C323.9899,103.2732 324.8919,102.7872 325.8179,101.7222 M317.0449,98.8282 C317.0449,94.6852 319.6619,92.1162 322.5069,92.1162 C323.9659,92.1162 324.8919,92.6712 325.9329,93.5512 L325.8179,91.4452 L325.8179,86.7232 L328.4799,86.7232 L328.4799,105.1712 L326.3039,105.1712 L326.0719,103.7362 L326.0039,103.7362 C325.0539,104.7082 323.7339,105.4722 322.2999,105.4722 C319.1049,105.4722 317.0449,103.0412 317.0449,98.8282" fill="#4D4948"></path>
        <path d="M335.6265,88.1343 L338.4745,88.1343 L340.9975,96.9533 C341.5755,98.8983 341.9465,100.5653 342.5485,102.5323 L342.6635,102.5323 C343.2415,100.5653 343.6595,98.8983 344.2145,96.9533 L346.7375,88.1343 L349.4685,88.1343 L344.1445,105.1713 L340.9745,105.1713 L335.6265,88.1343 Z" fill="#4D4948"></path>
        <path d="M358.816,97.6714 C358.816,95.4724 357.822,94.1994 355.97,94.1994 C354.373,94.1994 352.961,95.4264 352.705,97.6714 L358.816,97.6714 Z M350.113,98.8284 C350.113,94.6854 352.937,92.1154 355.923,92.1154 C359.302,92.1154 361.109,94.5464 361.109,98.1574 C361.109,98.6664 361.062,99.1994 360.992,99.5004 L352.728,99.5004 C352.937,101.9314 354.464,103.3894 356.664,103.3894 C357.798,103.3894 358.771,103.0414 359.697,102.4404 L360.623,104.1294 C359.441,104.9164 357.984,105.4724 356.316,105.4724 C352.867,105.4724 350.113,103.0194 350.113,98.8284 L350.113,98.8284 Z" fill="#4D4948"></path>
        <path d="M364.0894,86.7232 L366.7284,86.7232 L366.7284,91.6072 L366.6364,94.1302 C367.7474,93.0652 369.0214,92.1162 370.7574,92.1162 C373.4644,92.1162 374.6674,93.9212 374.6674,97.1622 L374.6674,105.1712 L372.0074,105.1712 L372.0074,97.4872 C372.0074,95.2872 371.3594,94.4082 369.8534,94.4082 C368.6734,94.4082 367.8624,95.0092 366.7284,96.1442 L366.7284,105.1712 L364.0894,105.1712 L364.0894,86.7232 Z" fill="#4D4948"></path>
        <path d="M378.4605,105.1707 L381.0995,105.1707 L381.0995,92.4397 L378.4605,92.4397 L378.4605,105.1707 Z M378.0895,88.4817 C378.0895,87.5327 378.8085,86.9077 379.7785,86.9077 C380.7515,86.9077 381.4915,87.5327 381.4915,88.4817 C381.4915,89.4077 380.7515,90.0567 379.7785,90.0567 C378.8085,90.0567 378.0895,89.4077 378.0895,88.4817 L378.0895,88.4817 Z" fill="#4D4948"></path>
        <path d="M384.1988,98.8287 C384.1988,94.5697 387.1378,92.1157 390.4958,92.1157 C392.1148,92.1157 393.2968,92.7647 394.2218,93.5747 L392.9018,95.3097 C392.2088,94.6847 391.4898,94.3147 390.6108,94.3147 C388.4818,94.3147 386.9528,96.1207 386.9528,98.8287 C386.9528,101.5147 388.4118,103.2967 390.5408,103.2967 C391.6068,103.2967 392.5558,102.7877 393.3198,102.1397 L394.4078,103.8977 C393.2498,104.9397 391.7458,105.4727 390.2868,105.4727 C386.8378,105.4727 384.1988,103.0417 384.1988,98.8287" fill="#4D4948"></path>
        <path d="M397.066,102.1851 L397.066,86.7231 L399.705,86.7231 L399.705,102.3251 C399.705,103.0411 400.029,103.2961 400.353,103.2961 C400.468,103.2961 400.56,103.2961 400.793,103.2501 L401.14,105.2641 C400.816,105.3791 400.353,105.4721 399.705,105.4721 C397.783,105.4721 397.066,104.2461 397.066,102.1851" fill="#4D4948"></path>
        <path d="M411.7613,97.6714 C411.7613,95.4724 410.7673,94.1994 408.9153,94.1994 C407.3183,94.1994 405.9063,95.4264 405.6503,97.6714 L411.7613,97.6714 Z M403.0583,98.8284 C403.0583,94.6854 405.8823,92.1154 408.8683,92.1154 C412.2473,92.1154 414.0543,94.5464 414.0543,98.1574 C414.0543,98.6664 414.0073,99.1994 413.9373,99.5004 L405.6733,99.5004 C405.8823,101.9314 407.4093,103.3894 409.6093,103.3894 C410.7433,103.3894 411.7163,103.0414 412.6423,102.4404 L413.5683,104.1294 C412.3863,104.9164 410.9293,105.4724 409.2613,105.4724 C405.8123,105.4724 403.0583,103.0194 403.0583,98.8284 L403.0583,98.8284 Z" fill="#4D4948"></path>
        <path d="M300.6656,58.4745 C300.5646,58.4745 300.4436,58.3315 300.4436,58.1535 L300.4436,25.2995 L308.8996,25.2995 L308.8996,58.1335 C308.8996,58.3605 308.7426,58.4745 308.6546,58.4745 L300.6656,58.4745 Z" fill="#004098"></path>
        <path d="M300.4439,19.2831 L300.4439,11.0621 C300.4439,10.9301 300.5469,10.8231 300.6719,10.8231 L308.6689,10.8231 C308.7409,10.8231 308.8999,10.8831 308.8999,11.0621 L308.8999,19.2831 L300.4439,19.2831 Z" fill="#E50021"></path>
        <path d="M390.4429,58.4745 C389.7759,58.4615 388.7739,58.3615 387.7709,57.6615 C386.8059,56.9875 386.0659,56.1515 385.3529,54.0695 C384.9139,52.7805 378.1619,32.8735 378.1619,32.8735 C374.6849,22.6205 371.0899,12.0195 370.7589,11.0675 C370.7419,11.0095 370.7849,10.9355 370.8119,10.8985 C370.8569,10.8375 370.9219,10.8055 370.9979,10.8055 L379.4239,10.8055 C379.6379,10.8055 379.7119,10.8315 379.7839,11.0045 L380.0969,11.9425 C384.8129,25.9075 391.9249,46.9565 392.1899,47.7095 C392.7559,49.0995 394.0449,49.9835 395.4819,49.9835 C396.9269,49.9835 398.1969,49.1155 398.7169,47.7725 C398.9889,46.9565 411.0129,11.0105 411.0469,10.9105 L411.0469,10.9115 C411.0499,10.9115 411.1189,10.8055 411.2499,10.8055 L419.7809,10.8055 C419.8159,10.8055 419.9279,10.8055 420.0129,10.9225 C420.0619,10.9905 420.0819,11.0705 420.0629,11.1275 C419.9539,11.4455 406.7459,50.3645 405.5339,54.0915 C405.0029,55.7265 404.2599,56.8005 403.0519,57.6825 C402.1569,58.3355 401.2139,58.4735 400.5799,58.4735 L390.4429,58.4745 Z" fill="#004098"></path>
        <path d="M254.2476,19.2855 C253.6046,19.2855 252.9706,19.5505 252.5076,20.0115 C252.0476,20.4735 251.7956,21.0875 251.796597,21.7405 L251.796597,27.9255 C251.796597,29.1045 252.7336,30.3775 254.2476,30.3775 L278.6236,30.3775 C282.0496,30.3775 284.1706,27.4985 284.1706,24.8325 C284.1706,22.1645 282.0496,19.2855 278.6236,19.2855 L254.2476,19.2855 Z M254.2476,38.8665 C253.0686,38.8665 251.7966,39.8035 251.7966,41.3175 L251.7966,47.5065 C251.7966,48.8595 252.8956,49.9605 254.2476,49.9605 L278.6576,49.9605 C281.3096,49.9605 284.1706,47.8385 284.1706,44.4105 C284.1706,41.3535 281.6976,38.8665 278.6576,38.8665 L254.2476,38.8665 Z M243.5716,58.4555 C243.4886,58.4555 243.3406,58.3785 243.3406,58.2255 L243.3406,11.0735 C243.3406,10.8845 243.4816,10.8045 243.5386,10.8045 L284.0296,10.8045 C289.9916,10.9865 292.6876,16.0255 292.6296,19.3745 L292.6296,26.8885 C292.6296,28.8465 292.3166,31.1645 289.9996,33.5145 L288.8646,34.6645 L290.0216,35.7925 C291.2076,36.9495 292.6216,38.9505 292.6216,41.9145 L292.6216,49.7985 C292.6216,54.5725 288.7416,58.4555 283.9736,58.4555 L243.5716,58.4555 Z" fill="#004098"></path>
        <path d="M316.9937,45.2382 C316.9597,45.2382 316.8487,45.2272 316.8487,45.0822 L316.8487,25.2992 L324.6457,25.2992 L324.6457,45.0822 C324.6457,45.1812 324.5397,45.2382 324.5067,45.2382 L316.9937,45.2382 Z" fill="#023F8C"></path>
        <path d="M324.9263,57.0326 C320.4723,57.0326 316.8493,53.4116 316.8493,48.9606 L316.8493,34.7166 L324.6853,44.4896 C324.9683,46.8036 326.8753,49.2036 329.9453,49.2036 L363.1013,49.2036 C363.1363,49.2036 363.2283,49.2436 363.2283,49.3316 L363.2283,56.9046 C363.2283,57.0106 363.1083,57.0326 363.0843,57.0326 L324.9263,57.0326 Z" fill="#004098"></path>
        <path d="M316.8492,20.3085 C316.8492,15.8575 320.4722,12.2365 324.9262,12.2365 L363.0842,12.2365 C363.1082,12.2365 363.2282,12.2585 363.2282,12.3645 L363.2282,19.9365 C363.2282,20.0265 363.1362,20.0655 363.1012,20.0655 L329.9452,20.0655 C326.6722,20.0655 324.6472,22.8305 324.6472,25.3915 L324.6472,25.4565 L316.8492,34.7205 L316.8492,20.3085 Z" fill="#004098"></path>
    </g>
</svg>